<svg width="21" height="19" viewBox="0 0 21 19" fill="none" xmlns="http://www.w3.org/2000/svg">
<path d="M10.7392 15.8812L15.4675 18.8769C16.0719 19.2598 16.8223 18.6903 16.643 17.9847L15.2769 12.6108C15.2384 12.4611 15.243 12.3036 15.29 12.1564C15.3371 12.0092 15.4247 11.8783 15.5429 11.7787L19.783 8.24959C20.3401 7.78588 20.0525 6.86126 19.3367 6.81481L13.7995 6.45544C13.6504 6.44479 13.5073 6.39198 13.387 6.30317C13.2667 6.21437 13.1741 6.09321 13.12 5.95382L11.0549 0.753229C10.9987 0.605277 10.8989 0.477903 10.7687 0.38802C10.6384 0.298137 10.4839 0.25 10.3257 0.25C10.1674 0.25 10.0129 0.298137 9.88271 0.38802C9.75247 0.477903 9.65265 0.605277 9.59652 0.753229L7.53136 5.95382C7.47725 6.09321 7.38466 6.21437 7.26436 6.30317C7.14406 6.39198 7.00101 6.44479 6.85187 6.45544L1.31462 6.81481C0.598836 6.86126 0.311281 7.78588 0.868407 8.24959L5.10847 11.7787C5.22663 11.8783 5.31428 12.0092 5.36134 12.1564C5.4084 12.3036 5.41296 12.4611 5.37449 12.6108L4.10757 17.5945C3.89235 18.4412 4.79284 19.1246 5.51811 18.6651L9.91215 15.8812C10.0357 15.8025 10.1792 15.7607 10.3257 15.7607C10.4722 15.7607 10.6156 15.8025 10.7392 15.8812Z" fill="#FFBA53"/>
</svg>
